<?xml version="1.0" standalone="no"?>
<!DOCTYPE svg PUBLIC "-//W3C//DTD SVG 20010904//EN"
 "http://www.w3.org/TR/2001/REC-SVG-20010904/DTD/svg10.dtd">
<svg version="1.0" xmlns="http://www.w3.org/2000/svg"
 width="1080.000000pt" height="1224.000000pt" viewBox="0 0 1080.000000 1224.000000"
 preserveAspectRatio="xMidYMid meet">

<g transform="translate(0.000000,1224.000000) scale(0.100000,-0.100000)"
fill="#000000" stroke="none">
<path d="M4680 12234 c0 -3 11 -33 24 -67 60 -156 59 -149 64 -394 6 -327 -14
-433 -129 -705 -28 -68 -59 -133 -67 -146 -9 -14 -12 -33 -8 -52 3 -17 2 -40
-3 -53 -5 -12 -11 -53 -15 -92 -8 -90 2 -105 83 -116 61 -9 135 -30 186 -54
69 -33 178 -75 194 -75 9 0 21 -4 26 -8 20 -18 183 -72 245 -81 72 -12 160
-41 160 -53 0 -4 -12 -8 -27 -9 -77 -3 -108 -10 -151 -35 -50 -29 -146 -120
-180 -170 -38 -56 -75 -180 -103 -349 -14 -81 -21 -573 -9 -580 5 -3 14 -40
21 -82 7 -46 19 -83 30 -94 10 -10 21 -39 25 -66 4 -26 12 -64 19 -84 15 -42
30 -237 21 -267 -5 -14 -17 -22 -39 -24 -29 -3 -32 -6 -35 -40 -2 -20 8 -74
22 -120 23 -75 50 -186 77 -308 5 -25 31 -135 58 -245 27 -110 58 -256 71
-325 12 -69 26 -137 30 -152 5 -16 5 -28 1 -28 -5 0 -49 18 -99 40 -68 30
-103 40 -143 40 -65 0 -41 7 -394 -111 -164 -54 -417 -125 -480 -134 -22 -3
-34 -2 -28 1 7 3 11 15 9 27 -3 12 -8 48 -11 80 -4 31 -11 57 -17 57 -12 0
-45 -34 -70 -72 -15 -23 -21 -25 -65 -20 -26 3 -52 10 -56 16 -5 6 -6 0 -3
-14 3 -14 8 -55 12 -92 l7 -66 -94 -48 c-148 -74 -241 -110 -346 -135 -54 -12
-102 -26 -106 -29 -4 -4 8 -33 28 -66 58 -95 73 -177 77 -399 2 -133 -1 -163
-26 -270 -31 -134 -97 -379 -127 -469 -10 -33 -19 -64 -19 -70 0 -7 33 -11 92
-11 61 -1 114 -7 153 -19 35 -11 88 -19 128 -18 42 0 67 -4 67 -11 0 -6 6 -2
14 8 13 18 13 18 24 -1 9 -15 14 -16 20 -6 11 16 192 28 192 12 0 -5 5 -10 10
-10 6 0 9 5 8 11 -2 7 18 13 52 16 30 2 82 8 115 13 44 7 61 6 67 -3 6 -9 8
-9 8 1 0 8 12 12 33 11 17 -1 62 5 100 15 37 9 72 14 79 10 6 -4 8 -3 5 3 -4
6 3 13 16 16 12 2 31 8 41 12 16 7 18 5 13 -9 -4 -10 -3 -15 3 -11 6 3 10 12
10 19 0 11 24 22 98 42 15 3 21 11 18 20 -4 9 2 14 17 15 20 0 20 1 3 8 -19 7
-19 8 0 16 36 15 59 13 75 -8 l17 -20 6 21 c4 12 10 23 14 23 4 1 16 3 27 4
11 2 38 11 60 21 22 10 60 19 85 21 24 2 47 8 50 14 4 6 12 4 20 -6 7 -9 19
-14 27 -11 8 3 13 -2 13 -14 0 -10 5 -22 11 -25 6 -4 8 -13 5 -21 -3 -8 -1
-14 5 -14 6 0 9 14 7 32 -2 19 2 33 10 35 6 3 12 0 12 -6 0 -7 22 -11 55 -11
46 0 55 -3 55 -17 1 -17 1 -17 11 -1 6 11 16 15 27 11 16 -6 16 -6 0 11 -10 9
-18 21 -18 25 0 15 49 53 62 49 7 -3 18 2 25 11 18 23 16 34 -4 26 -14 -5 -15
-4 -6 6 10 10 15 10 27 0 12 -10 20 -9 43 5 l28 18 -18 -21 c-12 -14 -15 -23
-8 -28 6 -3 11 -1 11 4 0 6 9 11 20 11 11 0 20 7 20 15 0 8 -4 15 -10 15 -5 0
-10 7 -10 15 0 23 16 18 37 -12 12 -19 28 -29 48 -30 20 -2 25 0 16 6 -11 7
-10 10 5 15 28 8 114 9 152 1 23 -5 32 -4 33 6 1 8 5 3 9 -11 6 -19 8 -20 9
-6 1 14 6 17 23 13 12 -4 27 -2 32 2 6 5 22 12 35 16 23 7 24 6 18 -31 l-5
-39 15 32 c9 18 23 35 31 38 13 5 13 2 0 -17 -14 -24 -13 -68 3 -68 5 0 9 5 9
11 0 7 10 5 25 -5 17 -12 25 -13 25 -4 0 9 3 9 11 1 9 -9 18 -8 37 5 l25 16
-16 -30 c-9 -17 -24 -37 -33 -45 -14 -11 -16 -11 -10 -1 7 12 4 12 -14 2 -16
-9 -19 -14 -10 -20 17 -10 -3 -22 -24 -14 -17 6 -22 24 -8 24 5 0 9 6 9 14 0
8 -6 12 -14 9 -7 -3 -10 -9 -7 -14 3 -5 0 -9 -5 -9 -6 0 -11 -9 -11 -19 0 -24
-40 -25 -40 -1 -1 13 -3 12 -14 -2 -7 -10 -16 -15 -19 -11 -4 3 -7 0 -7 -9 0
-8 11 -21 25 -28 35 -19 31 -26 -17 -34 l-43 -7 32 -16 c20 -9 36 -27 43 -47
5 -17 19 -39 30 -49 11 -9 20 -23 20 -30 0 -8 9 -22 20 -32 11 -10 20 -25 20
-33 0 -42 -160 -138 -211 -127 -46 10 -82 66 -87 135 -4 55 8 100 28 100 5 0
11 -8 13 -17 4 -15 6 -15 12 4 4 13 11 20 16 17 5 -3 9 13 9 35 0 51 -11 52
-93 10 -37 -18 -70 -29 -85 -26 -14 3 -26 -1 -29 -9 -8 -21 29 -436 57 -644 6
-41 17 -142 25 -225 15 -153 65 -599 86 -759 9 -73 8 -90 -3 -98 -10 -7 -10
-10 4 -18 42 -25 102 -95 134 -156 42 -80 43 -108 8 -127 -15 -8 -22 -17 -16
-21 6 -3 -10 -28 -38 -58 -48 -52 -49 -52 -106 -51 -54 1 -60 -1 -98 -37 l-41
-39 29 -88 c48 -150 58 -177 82 -218 34 -59 45 -121 31 -167 -7 -21 -15 -38
-19 -38 -5 0 -8 -4 -8 -10 0 -13 -37 -50 -51 -50 -5 0 -7 -4 -4 -10 3 -5 1
-10 -4 -10 -6 0 -11 6 -11 13 0 7 -9 18 -20 24 -21 14 -45 62 -80 163 -13 35
-36 85 -51 111 -16 25 -29 52 -29 59 0 6 -8 24 -18 38 -25 36 -34 62 -21 62 6
0 3 7 -5 16 -9 8 -13 21 -10 27 4 7 -1 5 -10 -4 -17 -16 -17 -18 -1 -49 l17
-33 -88 -86 c-141 -136 -193 -181 -262 -223 -36 -22 -72 -46 -80 -54 -8 -8
-16 -13 -18 -11 -2 2 11 78 30 168 19 90 53 266 76 391 33 187 61 328 85 428
2 8 4 30 4 48 1 29 4 32 30 32 17 0 33 5 36 10 3 6 17 10 31 10 13 0 24 5 24
11 0 5 5 7 12 3 7 -5 9 -2 5 8 -7 18 20 61 34 53 5 -3 6 0 4 8 -3 7 3 21 14
32 21 18 21 18 -9 52 -35 40 -37 49 -10 63 11 6 20 8 20 4 0 -4 9 3 20 16 11
13 20 30 20 38 0 9 3 13 6 9 11 -10 11 -101 1 -127 -15 -36 -14 -53 3 -57 11
-3 12 -2 3 4 -10 7 -10 13 2 29 14 18 14 18 15 -6 0 -14 5 -32 10 -40 12 -19
12 -6 0 45 -5 22 -12 92 -16 155 -3 63 -9 119 -12 124 -3 5 0 6 6 2 18 -11 14
5 -13 49 -28 46 -34 127 -12 160 21 30 27 66 16 87 -8 14 -3 57 20 161 34 160
49 248 86 492 14 94 33 202 44 240 10 39 22 91 26 118 6 45 8 47 38 48 27 0
20 5 -38 25 -38 13 -74 29 -80 35 -7 9 -5 10 10 4 34 -13 138 -36 142 -31 2 2
24 -2 48 -9 24 -8 46 -11 49 -8 3 4 16 2 29 -4 62 -30 76 -21 59 38 -8 26 -10
28 -11 12 -1 -26 -26 -31 -38 -8 -5 9 -31 16 -68 20 -33 3 -71 6 -85 8 -14 1
-32 -1 -41 -5 -13 -6 -18 -1 -23 23 -3 18 -10 28 -16 24 -8 -5 -7 -11 1 -21
19 -24 -37 -17 -71 8 -35 26 -48 18 -31 -18 6 -15 9 -29 6 -32 -3 -3 -5 0 -5
6 0 14 -26 16 -34 3 -3 -5 2 -8 12 -7 10 0 16 -5 14 -14 -3 -12 -1 -13 9 -2
18 17 29 15 29 -4 0 -22 -69 -312 -83 -349 -6 -16 -20 -42 -31 -58 -15 -21
-17 -30 -8 -39 9 -9 12 -7 12 11 0 12 4 20 9 17 5 -3 11 0 14 8 7 17 57 28 57
12 0 -6 -16 -36 -36 -66 -26 -41 -34 -48 -30 -28 5 22 3 26 -9 22 -8 -4 -15
-13 -15 -21 0 -9 -13 -39 -29 -67 -16 -28 -32 -62 -36 -76 -7 -26 -94 -162
-107 -168 -4 -2 -4 -10 -1 -19 4 -11 2 -14 -5 -9 -7 4 -12 1 -12 -7 0 -8 -7
-17 -15 -21 -8 -3 -15 -9 -14 -13 4 -22 -3 -41 -21 -61 -11 -12 -20 -26 -20
-32 0 -5 -5 -10 -11 -10 -13 0 -6 -26 26 -100 13 -30 27 -72 30 -93 4 -20 11
-37 16 -37 5 0 9 -8 9 -18 0 -22 32 -62 49 -62 7 0 6 8 -4 24 -16 24 -15 24 6
19 21 -6 21 -5 4 21 -9 14 -21 26 -26 26 -5 0 -9 5 -9 11 0 8 5 8 15 -1 12
-10 18 -10 29 -1 16 14 32 -2 20 -20 -4 -8 -1 -8 12 -1 11 5 25 7 32 5 6 -3
12 0 12 6 0 6 5 11 10 11 15 0 12 -30 -2 -31 -7 0 -3 -5 10 -11 19 -10 22 -18
21 -67 0 -41 -3 -50 -9 -36 -8 18 -9 16 -11 -10 -1 -16 -3 -37 -5 -45 -1 -8
-2 -32 -3 -52 -1 -21 -5 -38 -11 -38 -5 0 -8 24 -7 55 2 30 0 55 -5 55 -4 0
-8 -17 -9 -37 -1 -43 -7 -85 -14 -92 -3 -2 -5 3 -5 12 0 9 -4 17 -10 17 -5 0
-10 -10 -10 -22 -1 -21 -2 -21 -11 -5 -5 9 -14 17 -19 17 -21 0 -50 -41 -50
-70 0 -23 -4 -30 -20 -30 -11 0 -20 -7 -20 -15 0 -8 -4 -15 -9 -15 -5 0 -14
-13 -21 -30 -8 -18 -20 -30 -31 -30 -11 0 -19 -7 -19 -16 0 -9 -5 -12 -12 -8
-7 5 -9 2 -5 -9 3 -9 0 -18 -9 -21 -10 -4 -15 0 -13 12 1 9 1 24 0 32 -1 13
-2 13 -11 0 -6 -10 -10 -11 -10 -2 0 16 -27 16 -34 0 -3 -7 -2 12 1 42 3 30
10 63 15 73 6 11 5 17 -2 17 -14 0 -9 82 5 92 6 5 5 8 -2 8 -7 0 -12 10 -12
23 1 17 2 18 6 4 10 -37 23 -3 23 58 0 35 5 67 10 70 6 3 10 0 10 -8 0 -8 7
-20 15 -27 20 -17 20 5 0 40 -17 30 -19 50 -5 50 6 0 10 -10 10 -23 0 -16 6
-23 20 -24 11 -1 20 3 20 8 0 6 -4 7 -10 4 -6 -3 -10 3 -10 15 0 12 5 18 10
15 6 -3 10 -1 10 5 0 6 5 8 10 5 6 -3 10 3 10 15 0 12 5 18 10 15 6 -3 10 -1
10 4 0 19 -32 12 -51 -11 -13 -14 -19 -16 -19 -7 0 20 67 72 73 56 3 -6 6 -2
6 10 1 12 -4 25 -11 29 -7 5 -8 3 -3 -6 5 -8 4 -11 -2 -7 -5 3 -25 -9 -43 -28
-18 -19 -37 -32 -42 -29 -16 10 -7 23 29 41 51 25 61 45 44 85 -7 18 -13 41
-13 50 0 9 -7 23 -16 30 -13 11 -15 11 -9 -4 5 -13 -4 -20 -44 -33 -27 -9 -54
-25 -59 -36 -8 -15 -22 -19 -61 -19 -46 0 -54 -4 -97 -45 -25 -25 -54 -45 -65
-45 -10 0 -76 8 -145 17 -149 21 -316 19 -349 -2 -12 -8 -27 -15 -33 -15 -22
0 -95 -39 -118 -62 -37 -37 -82 -92 -82 -99 0 -4 -18 -26 -39 -50 -22 -23 -38
-45 -36 -49 2 -3 -2 -19 -10 -35 -13 -31 -40 -118 -51 -170 -3 -16 -17 -64
-30 -105 -24 -74 -31 -140 -16 -140 4 0 9 -30 11 -67 1 -38 3 -90 5 -118 2
-63 -12 -148 -27 -157 -6 -4 -9 -9 -7 -12 7 -6 105 12 155 29 22 7 66 13 99
14 112 2 181 34 249 116 49 59 82 74 186 90 126 19 186 45 244 107 69 74 123
166 107 181 -10 9 -11 9 -6 0 10 -18 -25 -68 -35 -51 -4 7 -11 9 -16 5 -4 -5
-1 -12 6 -17 12 -7 12 -12 -3 -34 -18 -28 -39 -36 -30 -11 7 18 -4 37 -17 29
-6 -3 -5 -12 3 -22 11 -14 10 -15 -6 -8 -19 7 -19 6 -1 -14 16 -18 16 -20 2
-20 -10 0 -17 5 -17 11 0 5 -5 7 -10 4 -6 -3 -10 1 -10 10 0 9 -7 15 -17 13
-11 -2 -19 6 -23 22 l-7 25 -5 -25 c-4 -23 -5 -24 -12 -5 -4 11 -12 29 -17 40
-7 16 -7 15 -3 -7 3 -15 1 -35 -5 -45 -6 -10 -11 -13 -11 -6 0 7 -7 10 -15 7
-9 -4 -15 0 -15 10 0 9 -7 16 -15 16 -10 0 -15 11 -16 38 -1 20 -5 51 -8 67
-7 27 -9 23 -16 -30 l-9 -60 -7 40 c-11 59 -11 114 1 95 5 -8 13 -11 17 -6 4
4 -1 14 -11 22 -15 10 -22 11 -27 2 -4 -6 -21 -11 -38 -10 -30 1 -49 -13 -36
-26 3 -3 11 0 16 8 9 12 10 11 5 -4 -5 -14 -2 -17 10 -12 15 6 15 4 3 -11 -25
-32 -49 -43 -49 -22 0 5 4 8 9 5 5 -3 11 0 14 8 3 8 -1 17 -9 20 -23 9 -26 7
-18 -6 4 -7 4 -10 0 -7 -3 3 -25 -11 -49 -32 -24 -23 -45 -35 -50 -30 -5 5
-16 7 -23 4 -8 -3 -14 0 -14 6 0 6 5 11 10 11 6 0 9 6 8 13 -2 6 5 11 15 9 9
-2 17 2 17 8 0 5 6 10 13 10 6 -1 2 -9 -10 -19 -11 -10 -18 -23 -14 -29 4 -7
14 -2 26 15 11 15 28 34 38 42 19 17 23 41 6 41 -5 0 -7 -4 -4 -10 3 -5 2 -10
-4 -10 -5 0 -13 5 -16 10 -9 14 23 24 38 12 9 -8 25 2 62 39 28 28 42 47 32
44 -13 -6 -17 -2 -17 16 0 13 4 20 8 14 13 -18 34 -16 58 6 24 23 23 45 -4 52
-10 3 4 5 31 6 26 0 47 5 47 9 0 4 15 16 33 27 17 10 54 40 81 67 26 26 52 48
56 48 4 0 11 7 14 16 4 9 10 14 13 10 7 -7 -17 -31 -225 -223 -57 -53 -107
-105 -113 -117 -9 -18 -8 -19 3 -6 17 20 71 55 81 52 4 -1 7 4 7 11 0 14 31
47 44 47 4 0 0 -7 -8 -16 -18 -17 -21 -44 -6 -44 6 0 10 5 10 11 0 6 6 16 13
23 10 10 12 4 13 -33 1 -25 -1 -38 -3 -28 -7 26 -23 20 -23 -8 0 -15 6 -25 14
-25 17 0 27 -37 19 -69 -4 -17 -3 -22 5 -17 7 4 12 2 12 -4 0 -6 5 -8 11 -4 8
4 7 9 -2 15 -11 6 -11 11 -1 21 6 6 12 26 12 42 l0 31 15 -29 c8 -15 15 -34
15 -42 0 -7 5 -16 11 -20 9 -5 10 1 5 20 -3 14 -3 26 2 26 13 0 2 143 -14 178
-9 18 -14 40 -11 50 2 9 16 -23 32 -71 27 -85 29 -131 10 -179 -4 -11 -3 -18
4 -18 6 0 11 9 11 19 0 11 4 22 9 25 5 3 7 27 4 53 l-4 48 15 -30 14 -30 1 28
c1 15 13 49 27 75 21 38 25 41 19 17 -3 -16 -11 -31 -16 -33 -10 -4 -12 -36
-3 -81 11 -52 26 -36 20 21 l-5 53 11 -47 c11 -52 28 -64 28 -20 0 44 11 76
21 60 12 -18 11 -40 -1 -33 -5 3 -10 -3 -10 -13 0 -27 29 -37 45 -15 24 33 30
2 27 -140 -2 -79 1 -150 7 -162 31 -66 61 -140 62 -154 0 -9 8 0 17 19 30 62
33 65 47 46 10 -13 9 -29 -4 -79 -9 -34 -19 -66 -23 -72 -12 -19 -27 -90 -34
-155 -3 -36 -8 -76 -10 -90 -2 -14 -6 -45 -9 -70 -4 -25 -11 -50 -16 -56 -12
-15 -31 -137 -32 -206 0 -32 -3 -58 -6 -58 -6 0 -12 -174 -13 -365 0 -29 -2
-35 -8 -20 -12 32 -22 -36 -18 -129 l3 -79 73 -1 c60 -1 76 -5 84 -20 6 -10
18 -25 28 -33 24 -21 14 -50 -23 -69 -28 -15 -32 -15 -82 11 -46 23 -67 27
-167 30 -65 2 -132 9 -158 18 -25 8 -38 15 -29 16 20 1 61 90 94 204 30 100
31 120 6 90 -10 -12 -47 -38 -83 -57 -46 -26 -80 -55 -118 -102 -29 -36 -63
-72 -74 -79 -12 -7 -56 -18 -99 -25 -138 -21 -172 -46 -224 -165 -29 -66 -48
-125 -40 -125 2 0 15 21 28 46 30 60 99 131 145 150 46 19 194 31 194 15 0 -7
-21 -11 -57 -11 -89 0 -173 -62 -177 -130 -1 -17 -15 -44 -36 -67 -63 -69
-127 -148 -140 -172 -15 -28 -41 -117 -76 -261 -29 -115 -33 -208 -12 -300
l13 -55 6 135 c3 74 11 148 18 163 6 16 11 42 11 58 0 32 15 39 24 12 3 -10 3
-1 0 19 -5 39 13 118 27 118 4 0 15 24 23 53 9 28 28 66 42 82 18 21 24 24 19
10 -22 -59 -25 -145 -5 -145 4 0 10 19 12 43 5 43 56 163 65 153 3 -3 2 -22
-2 -43 -5 -21 -9 -42 -9 -48 -1 -5 -7 -32 -13 -60 -6 -27 -14 -114 -17 -193
-4 -78 -13 -168 -21 -199 -8 -32 -15 -78 -15 -104 0 -26 -4 -59 -9 -72 -6 -14
-17 -94 -26 -179 -20 -186 -72 -408 -96 -408 -20 0 -34 -113 -30 -255 6 -269
6 -349 -3 -407 l-9 -58 1327 0 1326 0 0 40 c0 37 2 40 26 40 15 0 33 8 40 18
13 16 13 16 14 0 0 -21 20 -24 20 -4 0 8 -4 18 -10 21 -5 3 -10 15 -10 26 0
10 -5 19 -10 19 -7 0 -7 6 0 19 5 11 10 29 10 40 0 12 5 21 10 21 6 0 10 18
10 40 0 33 -3 40 -20 40 -24 0 -24 3 -5 40 8 16 12 36 9 44 -5 13 -2 13 21 3
l27 -12 -6 -110 c-4 -60 -9 -122 -12 -136 -5 -23 -2 -27 25 -31 23 -3 32 0 36
13 4 12 20 20 43 24 20 3 50 10 67 15 20 7 31 7 33 0 6 -17 39 -11 45 9 10 39
117 33 117 -6 0 -7 7 -13 15 -13 13 0 15 -7 9 -37 -4 -21 -11 -40 -15 -41 -5
-2 -9 -21 -9 -42 l0 -39 130 0 129 -1 23 40 c23 39 38 51 38 29 0 -8 5 -7 16
2 13 11 19 8 39 -17 14 -16 24 -35 25 -41 0 -10 343 -13 1680 -13 l1680 0 0
6120 0 6120 -3060 0 c-1683 0 -3060 -3 -3060 -6z m2948 -812 c-6 -62 -36 -123
-68 -139 -13 -7 -30 -20 -37 -29 -7 -10 -16 -14 -20 -11 -3 4 11 44 34 90 22
45 45 94 51 110 6 15 19 27 28 27 14 0 16 -8 12 -48z m-828 -1226 c0 -14 -29
-31 -38 -22 -2 3 -2 12 1 21 8 19 37 20 37 1z m-40 -50 c0 -19 -38 -58 -70
-73 -50 -23 -59 -23 -71 -1 -10 19 -8 25 15 45 15 13 35 24 44 24 46 4 63 7
69 13 10 9 13 7 13 -8z m-142 -312 c2 -21 -4 -36 -23 -54 -23 -22 -27 -22 -41
-8 -13 13 -14 20 -4 39 33 63 63 73 68 23z m564 -489 c20 -14 54 -51 75 -82
30 -46 38 -67 38 -104 0 -26 -4 -51 -8 -56 -5 -4 -36 -8 -70 -8 -48 0 -62 -3
-62 -15 0 -19 -24 -23 -59 -10 -18 7 -26 16 -24 28 2 9 -5 24 -15 32 -29 24
-34 99 -9 128 11 12 22 22 26 22 17 0 46 39 48 63 3 33 13 34 60 2z m-1612
-31 c0 -17 -22 -14 -28 4 -2 7 3 12 12 12 9 0 16 -7 16 -16z m788 -206 c20
-20 14 -55 -14 -77 -30 -23 -47 -19 -63 15 -21 47 -7 74 39 74 14 0 31 -5 38
-12z m-872 -55 c-4 -16 -11 -49 -15 -76 -4 -26 -13 -53 -19 -59 -7 -7 -12 -18
-12 -25 0 -7 -18 -43 -40 -79 -22 -36 -40 -72 -40 -80 0 -8 -7 -14 -15 -14 -8
0 -15 -5 -15 -11 0 -19 -54 -87 -77 -98 -21 -10 -23 -8 -23 15 0 14 -8 39 -17
55 -15 26 -15 30 -2 41 26 22 69 86 69 102 0 9 4 16 9 16 5 0 14 12 20 28 7
15 34 49 61 77 28 27 50 55 50 62 0 7 5 13 10 13 6 0 10 5 10 12 0 14 30 48
43 48 5 0 6 -12 3 -27z m594 -163 c0 -5 17 -10 39 -10 46 0 52 -14 40 -86 -36
-217 -119 -474 -153 -474 -5 0 -18 -7 -28 -17 -17 -15 -18 -15 -18 10 0 16 -8
30 -20 37 -12 6 -20 21 -20 36 0 14 -9 39 -21 55 -11 16 -25 46 -31 67 -14 52
-23 59 -68 57 l-40 -2 0 79 0 78 40 0 c28 0 40 4 40 15 0 8 11 26 25 40 14 14
32 25 40 25 8 0 15 3 15 8 0 4 17 16 38 27 20 11 39 22 42 25 13 14 56 39 68
39 6 1 12 -3 12 -9z m191 -433 c-8 -8 -11 -3 -11 19 1 25 2 27 11 11 8 -14 8
-22 0 -30z m401 -554 c10 -9 18 -28 18 -42 0 -43 -20 -101 -35 -101 -7 0 -15
-5 -17 -12 -2 -6 -26 -12 -54 -14 -37 -2 -55 2 -74 17 l-24 21 19 56 c18 52
24 58 65 74 57 22 79 22 102 1z m-486 -27 c0 0 5 -19 11 -41 17 -60 7 -101
-28 -115 -31 -13 -36 -29 -18 -47 9 -9 3 -32 -21 -89 -39 -95 -73 -147 -105
-164 -29 -15 -31 -23 -10 -40 24 -20 18 -49 -10 -56 -56 -14 -136 50 -182 145
-23 50 -24 59 -14 106 12 54 52 107 105 139 23 15 40 17 85 12 66 -8 112 -9
119 -2 3 3 0 12 -6 19 -12 14 -17 52 -14 98 2 29 36 51 67 42 11 -3 20 -6 21
-7z m774 -128 c22 -24 26 -43 10 -53 -5 -3 -10 -15 -10 -25 0 -23 -37 -35 -75
-26 -23 6 -24 9 -19 54 3 26 7 53 10 60 6 20 61 14 84 -10z m-1202 -203 c7
-30 10 -60 7 -66 -5 -8 20 -129 40 -196 2 -7 0 -15 -5 -18 -16 -10 -90 77 -84
97 3 10 1 34 -5 54 -12 45 1 84 29 84 11 0 20 5 20 10 0 6 -7 10 -15 10 -8 0
-15 5 -15 11 0 6 -7 9 -15 6 -19 -8 -27 7 -19 38 4 17 13 25 28 25 18 0 24 -9
34 -55z m482 -745 c0 -5 -4 -10 -10 -10 -5 0 -10 5 -10 10 0 6 5 10 10 10 6 0
10 -4 10 -10z m110 -5 c7 -8 20 -15 29 -15 9 0 22 -5 29 -12 15 -15 16 -48 2
-48 -5 0 -10 -7 -10 -16 0 -12 6 -15 24 -10 40 10 56 -2 56 -44 0 -21 -7 -43
-15 -50 -8 -7 -15 -18 -15 -26 0 -7 -9 -18 -19 -24 -11 -5 -22 -20 -24 -32 -3
-14 -5 -9 -6 15 -1 23 -6 37 -14 37 -17 0 -53 39 -61 66 -4 12 -15 29 -26 39
-11 10 -20 24 -20 32 0 7 -4 13 -9 13 -9 0 -21 70 -14 83 8 13 80 7 93 -8z
m510 -20 c0 -8 -7 -15 -15 -15 -8 0 -15 7 -15 15 0 8 7 15 15 15 8 0 15 -7 15
-15z m-6 -61 c9 -22 -3 -32 -14 -14 -12 19 -12 30 -1 30 5 0 12 -7 15 -16z
m-193 -65 c63 -23 66 -27 75 -103 5 -42 2 -60 -16 -95 -20 -40 -20 -73 0 -41
8 12 10 9 10 -11 0 -34 -23 -43 -69 -28 -51 16 -59 25 -66 71 l-7 41 -16 -26
c-21 -34 -39 -40 -63 -23 -11 8 -29 11 -40 9 -16 -5 -19 -1 -17 18 2 14 12 38
24 54 11 17 26 42 34 58 13 25 78 97 88 97 3 0 31 -9 63 -21z m164 -29 c18
-20 18 -21 -3 -43 -18 -17 -22 -18 -22 -5 0 9 -7 18 -15 22 -8 3 -15 15 -15
26 0 26 31 26 55 0z m-44 -117 c-9 -16 -10 -14 -11 12 0 21 3 26 11 18 8 -8 8
-16 0 -30z m-980 -43 c21 0 39 -5 39 -10 0 -6 10 -8 24 -4 13 3 27 1 30 -5 4
-6 20 -11 36 -11 16 0 35 -7 44 -15 8 -9 19 -14 23 -13 13 4 123 -33 123 -41
0 -4 12 -13 27 -20 14 -7 36 -21 47 -32 12 -10 29 -25 39 -32 21 -14 12 -49
-13 -56 -70 -17 -181 -17 -195 1 -5 7 -25 14 -44 15 -18 1 -38 6 -45 11 -6 5
-51 17 -101 26 -49 10 -103 22 -120 28 -36 14 -92 58 -73 58 8 0 5 5 -6 11
-15 9 -16 13 -5 21 10 7 8 8 -8 5 -19 -4 -23 -1 -23 18 0 13 -8 29 -17 34 -21
12 -15 13 67 11 30 -1 66 3 80 8 14 5 26 6 28 1 2 -5 21 -9 43 -9z m138 1 c8
-5 9 -11 3 -15 -14 -8 -43 4 -36 15 7 11 15 11 33 0z m311 -147 c0 -8 -5 -12
-10 -9 -6 4 -8 11 -5 16 9 14 15 11 15 -7z m-125 -194 c-3 -5 -12 -10 -18 -10
-7 0 -6 4 3 10 19 12 23 12 15 0z m4628 -323 c13 13 6 -22 -8 -41 -14 -19 -15
-19 -20 0 -4 10 -10 26 -15 35 -12 24 0 32 20 14 9 -8 20 -12 23 -8z m-89 -49
c-12 -19 -24 -5 -24 25 l1 32 13 -25 c8 -14 12 -28 10 -32z m21 -34 c13 -5 14
-8 3 -15 -21 -14 -38 -10 -32 6 7 17 7 17 29 9z m-217 -74 c8 -13 9 -26 4 -37
-10 -17 -16 -11 -26 30 -8 32 4 36 22 7z m-78 -31 c0 -24 -4 -38 -10 -34 -17
10 -11 75 7 75 2 0 3 -18 3 -41z m45 -54 c-42 -19 -66 -19 -41 0 11 8 31 15
45 14 26 -1 26 -1 -4 -14z m-5135 -516 c-32 -160 -74 -315 -92 -337 -8 -9 -15
-7 -33 12 -13 15 -38 26 -68 30 -26 4 -49 10 -51 14 -7 12 41 101 87 162 23
30 42 57 44 59 1 2 10 -2 19 -10 16 -13 16 -12 3 8 -18 30 1 54 26 33 14 -12
15 -11 5 12 -10 21 -8 32 19 75 17 27 38 67 48 89 28 66 26 16 -7 -147z m27
-364 c9 -24 -1 -27 -15 -5 -8 13 -8 20 -2 20 6 0 13 -7 17 -15z m-527 -40 c0
-14 -4 -25 -9 -25 -5 0 -8 11 -7 25 1 33 16 33 16 0z m-30 5 c0 -5 -5 -10 -11
-10 -5 0 -7 5 -4 10 3 6 8 10 11 10 2 0 4 -4 4 -10z m51 -50 c-22 -23 -35 -30
-48 -25 -15 6 -15 8 -3 13 20 7 70 48 66 55 -2 2 1 1 7 -3 5 -5 -4 -21 -22
-40z m521 25 c-2 -14 -6 -25 -8 -25 -2 0 -4 11 -4 25 0 14 4 25 9 25 4 0 6
-11 3 -25z m-395 -77 c-3 -8 -6 -5 -6 6 -1 11 2 17 5 13 3 -3 4 -12 1 -19z
m-27 -68 c0 -5 -2 -10 -4 -10 -3 0 -8 5 -11 10 -3 6 -1 10 4 10 6 0 11 -4 11
-10z m4 -54 c-3 -15 -8 -25 -11 -23 -2 3 -1 17 3 31 3 15 8 25 11 23 2 -3 1
-17 -3 -31z m-394 -50 c0 -3 -4 -8 -10 -11 -5 -3 -10 -1 -10 4 0 6 5 11 10 11
6 0 10 -2 10 -4z m-133 -12 c-3 -3 -12 -4 -19 -1 -8 3 -5 6 6 6 11 1 17 -2 13
-5z m400 -26 c-3 -8 -6 -5 -6 6 -1 11 2 17 5 13 3 -3 4 -12 1 -19z m90 -10
c-3 -7 -5 -2 -5 12 0 14 2 19 5 13 2 -7 2 -19 0 -25z m410 7 c0 -8 -4 -12 -9
-9 -5 3 -6 10 -3 15 9 13 12 11 12 -6z m53 -19 c0 -25 -7 -39 -25 -53 -19 -14
-22 -21 -14 -33 9 -13 10 -12 5 3 -3 9 -1 17 5 17 19 0 5 -32 -21 -48 -18 -11
-21 -12 -12 -2 15 17 16 34 1 24 -8 -4 -9 1 -4 17 5 13 12 39 16 58 7 31 23
50 42 51 4 0 7 -15 7 -34z m-650 -51 c0 -17 -2 -17 -10 -5 -5 8 -10 24 -10 35
0 17 2 17 10 5 5 -8 10 -24 10 -35z m-118 3 c-9 -9 -12 -7 -12 12 0 19 3 21
12 12 9 -9 9 -15 0 -24z m55 -10 c-3 -8 -6 -5 -6 6 -1 11 2 17 5 13 3 -3 4
-12 1 -19z m-24 -1 c3 -8 -1 -14 -8 -14 -7 0 -11 6 -8 14 3 7 6 13 8 13 2 0 5
-6 8 -13z m180 -12 c-7 -21 -13 -19 -13 6 0 11 4 18 10 14 5 -3 7 -12 3 -20z
m384 -12 c0 -16 -1 -20 -4 -10 -2 9 -10 17 -16 17 -9 0 2 12 18 20 0 0 1 -12
2 -27z m-954 10 c-13 -2 -33 -2 -45 0 -13 2 -3 4 22 4 25 0 35 -2 23 -4z m174
-5 c-2 -7 -10 -12 -17 -10 -7 1 -19 -3 -27 -10 -8 -6 -25 -13 -36 -14 -12 -2
-16 0 -9 2 19 9 14 22 -10 27 -13 2 -4 3 19 1 23 -1 45 1 48 7 9 14 37 11 32
-3z m450 -20 c-3 -8 -6 -5 -6 6 -1 11 2 17 5 13 3 -3 4 -12 1 -19z m-247 2 c0
13 1 13 10 0 5 -8 10 -19 10 -25 0 -5 -5 -3 -10 5 -9 13 -10 13 -10 0 0 -13
-1 -13 -10 0 -5 8 -10 20 -10 25 0 6 5 3 10 -5 9 -13 10 -13 10 0z m-19 -67
c-8 -15 -10 -15 -11 -2 0 17 10 32 18 25 2 -3 -1 -13 -7 -23z m57 -4 c-3 -8
-7 -3 -11 10 -4 17 -3 21 5 13 5 -5 8 -16 6 -23z m-393 -9 c3 -5 1 -10 -4 -10
-6 0 -11 5 -11 10 0 6 2 10 4 10 3 0 8 -4 11 -10z m192 -94 c-2 -15 -6 -10
-16 22 -6 23 -9 48 -5 54 10 15 27 -45 21 -76z m40 -18 c-2 -13 -4 -3 -4 22 0
25 2 35 4 23 2 -13 2 -33 0 -45z m723 58 c0 -2 -7 -7 -16 -10 -8 -3 -12 -2 -9
4 6 10 25 14 25 6z m-253 -28 c-3 -8 -6 -5 -6 6 -1 11 2 17 5 13 3 -3 4 -12 1
-19z m-807 2 c0 -5 -4 -10 -10 -10 -5 0 -10 5 -10 10 0 6 5 10 10 10 6 0 10
-4 10 -10z m764 -5 c-4 -8 -8 -15 -10 -15 -2 0 -4 7 -4 15 0 8 4 15 10 15 5 0
7 -7 4 -15z m-590 -7 c-3 -4 -9 -8 -15 -8 -5 0 -9 4 -9 8 0 5 7 9 15 9 8 0 12
-4 9 -9z m820 -17 c-16 -16 -31 -27 -33 -25 -6 6 41 53 53 53 5 1 -4 -12 -20
-28z m-875 -31 c0 -10 -3 -8 -9 5 -12 27 -12 43 0 25 5 -8 9 -22 9 -30z m181
-5 c0 -8 -4 -15 -10 -15 -5 0 -7 7 -4 15 4 8 8 15 10 15 2 0 4 -7 4 -15z m17
-22 c-3 -10 -5 -4 -5 12 0 17 2 24 5 18 2 -7 2 -21 0 -30z m633 18 c0 -15
-113 -171 -124 -171 -9 0 4 77 18 115 8 22 15 34 16 28 0 -16 20 -17 20 -2 0
21 26 37 43 27 13 -7 17 -5 17 7 0 8 2 15 5 15 3 0 5 -8 5 -19z m-613 -53 c-3
-7 -5 -2 -5 12 0 14 2 19 5 13 2 -7 2 -19 0 -25z m195 -12 c7 4 8 2 4 -4 -9
-15 -46 7 -46 28 0 10 5 7 16 -8 8 -12 20 -19 26 -16z m-402 -20 c0 -26 -6
-18 -14 19 -5 22 -4 26 4 15 5 -8 10 -24 10 -34z m313 29 c4 -8 2 -17 -3 -20
-6 -4 -10 3 -10 14 0 25 6 27 13 6z m37 0 c0 -8 -4 -15 -10 -15 -5 0 -10 7
-10 15 0 8 5 15 10 15 6 0 10 -7 10 -15z m-6 -33 c2 -4 -4 -8 -14 -8 -10 0
-16 4 -14 8 3 4 9 8 14 8 5 0 11 -4 14 -8z m-194 -66 c0 -2 -7 -7 -16 -10 -8
-3 -12 -2 -9 4 6 10 25 14 25 6z m-310 -26 c0 -5 -4 -10 -9 -10 -6 0 -13 5
-16 10 -3 6 1 10 9 10 9 0 16 -4 16 -10z m1011 -1455 c10 7 58 -25 59 -39 0
-5 -7 -2 -16 5 -15 12 -16 10 -12 -23 2 -20 0 -34 -4 -32 -4 3 -8 11 -8 19 0
7 -16 27 -36 44 -24 22 -34 37 -30 48 6 14 9 13 22 -5 8 -12 20 -20 25 -17z
m-587 17 c6 -11 -30 -42 -49 -42 -7 0 -17 5 -20 10 -3 6 -19 10 -36 10 -16 0
-29 4 -29 9 0 9 21 12 107 19 12 1 24 -2 27 -6z m497 -115 c-13 -13 -15 1 -4
30 7 17 8 17 11 -1 2 -10 -1 -23 -7 -29z m274 -97 c12 -25 27 -61 33 -80 6
-19 18 -53 26 -75 20 -52 21 -105 2 -105 -16 0 -43 62 -52 122 -9 55 -24 84
-69 133 -48 52 -64 85 -58 116 5 26 5 26 50 -20 24 -25 55 -66 68 -91z m176
-553 c31 -100 37 -150 24 -208 -12 -53 -24 -30 -18 34 6 69 -11 169 -33 191
-8 8 -14 25 -14 38 -1 13 -7 34 -15 48 -21 36 -18 49 5 22 11 -13 34 -69 51
-125z m547 -193 c13 -14 -1 -147 -15 -152 -8 -2 -13 6 -13 22 0 24 -4 26 -40
26 -29 0 -40 4 -40 15 0 8 -4 15 -10 15 -5 0 -16 15 -24 33 -12 28 -12 34 3
45 18 15 126 12 139 -4z m-541 -76 c-3 -8 -6 -5 -6 6 -1 11 2 17 5 13 3 -3 4
-12 1 -19z m1634 -93 c1 -8 2 -28 2 -45 0 -54 -2 -58 -43 -79 -37 -19 -40 -19
-41 -3 -4 48 5 88 22 100 11 8 25 20 32 27 16 19 27 18 28 0z m-881 -130 c0
-8 -2 -15 -4 -15 -2 0 -6 7 -10 15 -3 8 -1 15 4 15 6 0 10 -7 10 -15z m464
-167 c-4 -13 -8 -38 -9 -56 -2 -41 -25 -69 -25 -30 0 15 -4 28 -10 30 -6 2 -6
17 2 41 8 26 17 37 30 37 16 0 18 -4 12 -22z m-65 -75 c0 -31 5 -59 10 -63 6
-3 17 -21 25 -41 18 -43 8 -149 -17 -177 -9 -10 -17 -23 -17 -29 0 -16 -74
-43 -99 -36 -12 3 -21 13 -21 24 0 11 -4 19 -10 19 -6 0 -10 31 -10 74 0 41
-4 78 -10 81 -5 3 -10 15 -10 26 0 10 -4 19 -9 19 -5 0 -13 9 -16 20 -3 11
-12 20 -20 20 -20 0 3 80 24 81 27 2 34 4 71 22 19 9 51 16 71 17 l37 0 1 -57z
m-799 -528 c0 -11 -12 -15 -51 -15 -45 0 -50 2 -39 15 7 9 29 15 51 15 28 0
39 -4 39 -15z m424 -81 c9 -9 16 -32 16 -54 0 -43 -19 -61 -74 -74 -30 -7 -86
9 -86 25 0 5 -9 9 -20 9 -21 0 -27 15 -9 25 6 4 14 17 18 29 7 17 4 22 -13 28
-14 4 -8 6 22 7 23 1 42 6 42 11 0 17 87 12 104 -6z"/>
<path d="M5057 3963 c-4 -3 -7 -11 -7 -17 0 -6 5 -5 12 2 6 6 9 14 7 17 -3 3
-9 2 -12 -2z"/>
<path d="M5120 2330 c0 -5 5 -10 11 -10 5 0 7 5 4 10 -3 6 -8 10 -11 10 -2 0
-4 -4 -4 -10z"/>
<path d="M4311 11275 c-2 -44 49 -192 59 -174 9 13 -2 57 -25 105 -8 17 -19
42 -24 55 -5 13 -10 20 -10 14z"/>
<path d="M3923 9903 c-33 -60 -38 -100 -14 -112 16 -9 23 -6 40 18 21 29 26
66 15 109 -9 31 -17 28 -41 -15z"/>
<path d="M3841 9673 l0 -58 21 42 c18 35 19 45 8 57 -22 28 -30 17 -29 -41z"/>
<path d="M4800 9345 c0 -8 2 -15 4 -15 2 0 6 7 10 15 3 8 1 15 -4 15 -6 0 -10
-7 -10 -15z"/>
<path d="M4830 9269 c0 -21 32 -154 41 -171 5 -10 9 -25 9 -33 0 -19 38 -57
45 -45 3 5 -1 26 -10 46 -8 20 -15 45 -15 55 0 34 -25 99 -37 99 -8 0 -13 13
-13 30 0 17 -4 30 -10 30 -5 0 -10 -5 -10 -11z"/>
<path d="M4325 7716 c-22 -29 -25 -39 -15 -51 16 -19 29 -11 47 33 21 51 2 62
-32 18z"/>
<path d="M4465 7611 c-3 -5 -1 -12 5 -16 5 -3 10 1 10 9 0 18 -6 21 -15 7z"/>
<path d="M4430 7578 c0 -18 -79 -108 -94 -108 -7 0 -22 -18 -35 -40 -22 -40
-22 -40 -2 -40 12 0 21 3 21 8 0 4 14 16 30 27 16 11 30 23 30 27 0 7 11 22
45 62 21 25 35 57 30 66 -9 14 -25 12 -25 -2z"/>
<path d="M4166 7374 c-19 -49 15 -82 46 -44 16 20 16 22 0 40 -20 24 -38 26
-46 4z"/>
<path d="M3340 6965 c0 -2 5 -16 12 -30 11 -26 32 -33 43 -15 6 9 -8 15 -29
11 -5 -1 -6 5 -3 13 3 8 -1 17 -9 20 -8 3 -14 3 -14 1z"/>
<path d="M5451 5884 c0 -11 3 -14 6 -6 3 7 2 16 -1 19 -3 4 -6 -2 -5 -13z"/>
<path d="M5337 5821 c-3 -12 -1 -24 4 -27 13 -8 24 25 12 37 -7 7 -12 3 -16
-10z"/>
<path d="M5801 5778 c-1 -16 4 -28 9 -28 12 0 12 8 0 35 -8 18 -9 17 -9 -7z"/>
<path d="M4598 5673 c7 -3 16 -2 19 1 4 3 -2 6 -13 5 -11 0 -14 -3 -6 -6z"/>
<path d="M3978 5573 c7 -3 16 -2 19 1 4 3 -2 6 -13 5 -11 0 -14 -3 -6 -6z"/>
<path d="M5036 4493 c-6 -14 -5 -15 5 -6 7 7 10 15 7 18 -3 3 -9 -2 -12 -12z"/>
<path d="M5110 4501 c0 -6 4 -13 10 -16 6 -3 7 1 4 9 -7 18 -14 21 -14 7z"/>
<path d="M4490 4320 c0 -5 5 -10 10 -10 6 0 10 5 10 10 0 6 -4 10 -10 10 -5 0
-10 -4 -10 -10z"/>
<path d="M4495 4200 c3 -5 8 -10 11 -10 2 0 4 5 4 10 0 6 -5 10 -11 10 -5 0
-7 -4 -4 -10z"/>
<path d="M4450 4191 c0 -5 7 -11 14 -14 10 -4 13 -1 9 9 -6 15 -23 19 -23 5z"/>
<path d="M4661 4174 c0 -11 3 -14 6 -6 3 7 2 16 -1 19 -3 4 -6 -2 -5 -13z"/>
<path d="M4731 4174 c0 -11 3 -14 6 -6 3 7 2 16 -1 19 -3 4 -6 -2 -5 -13z"/>
<path d="M4805 4152 c-3 -3 -5 -10 -5 -16 0 -6 5 -4 11 4 9 12 10 11 6 -5 -3
-11 -8 -29 -11 -40 -4 -11 2 -4 13 15 11 19 20 38 21 41 0 7 -28 8 -35 1z"/>
<path d="M4603 4075 c1 -19 5 -35 9 -35 11 0 10 57 -1 64 -5 3 -9 -10 -8 -29z"/>
<path d="M4731 4064 c0 -11 3 -14 6 -6 3 7 2 16 -1 19 -3 4 -6 -2 -5 -13z"/>
<path d="M4631 4060 c0 -8 4 -24 9 -35 l9 -20 0 20 c0 11 -4 27 -9 35 -9 13
-10 13 -9 0z"/>
<path d="M4711 4044 c0 -11 3 -14 6 -6 3 7 2 16 -1 19 -3 4 -6 -2 -5 -13z"/>
<path d="M5345 4020 c-10 -11 -16 -22 -13 -25 3 -3 13 6 22 20 20 30 16 32 -9
5z"/>
<path d="M5417 4024 c-14 -15 65 -110 83 -99 6 3 10 -2 10 -13 0 -22 45 -29
145 -19 34 3 31 12 -7 28 -18 7 -45 22 -60 32 -15 11 -31 16 -39 12 -8 -5 -10
-4 -5 4 5 7 -12 20 -49 36 -59 26 -68 29 -78 19z m163 -84 c0 -5 -7 -7 -15 -4
-8 4 -15 8 -15 10 0 2 7 4 15 4 8 0 15 -4 15 -10z m38 -30 c12 0 13 -3 5 -11
-14 -14 -33 -3 -32 19 0 11 3 12 6 5 2 -7 12 -13 21 -13z m-38 0 c0 -5 -4 -10
-10 -10 -5 0 -10 5 -10 10 0 6 5 10 10 10 6 0 10 -4 10 -10z"/>
<path d="M5247 3943 c-11 -3 -16 -11 -13 -19 3 -7 1 -16 -4 -19 -17 -10 -11
-28 6 -21 19 7 57 -21 48 -35 -3 -5 -10 -6 -16 -3 -7 4 -8 2 -4 -4 4 -7 14
-12 22 -12 8 0 14 -5 14 -11 0 -5 5 -7 12 -3 8 5 7 10 -3 18 -8 6 -15 22 -17
36 -1 13 -8 27 -14 31 -6 4 -8 16 -5 28 3 12 2 20 -1 20 -4 -1 -15 -3 -25 -6z"/>
<path d="M5194 3895 c-15 -33 -18 -67 -19 -190 0 -188 11 -238 72 -309 36 -43
86 -61 59 -22 -8 12 -21 20 -30 20 -12 -1 -14 4 -10 22 4 15 2 24 -5 24 -6 0
-11 8 -11 18 0 15 2 15 11 2 9 -13 10 -13 6 0 -2 8 -13 14 -24 13 -17 -2 -19
3 -16 45 4 43 3 45 -11 27 -13 -18 -15 -12 -21 60 -6 63 -5 80 7 89 8 6 17 28
21 49 5 31 3 38 -8 33 -9 -3 -15 1 -15 9 0 9 6 12 15 9 8 -4 17 1 21 10 7 17
-16 76 -30 76 -4 0 -3 7 4 15 6 8 10 20 7 27 -3 7 -13 -5 -23 -27z"/>
<path d="M5236 3704 c-4 -14 -5 -28 -3 -31 3 -2 8 8 11 23 4 14 5 28 3 31 -3
2 -8 -8 -11 -23z"/>
<path d="M4940 3696 c0 -8 4 -17 9 -20 5 -4 7 3 4 14 -6 23 -13 26 -13 6z"/>
<path d="M4925 3598 c-4 -40 -12 -76 -17 -79 -6 -4 -10 -28 -10 -53 1 -25 -3
-46 -8 -46 -6 0 -10 -18 -10 -41 0 -22 4 -38 9 -35 4 3 6 16 4 29 -3 13 2 29
11 36 10 9 13 23 10 44 -4 25 -3 29 5 17 9 -12 11 -7 9 20 -1 19 2 68 6 108 4
39 6 72 3 72 -3 0 -8 -33 -12 -72z"/>
<path d="M5470 3657 c0 -7 9 -13 20 -13 11 0 20 1 20 3 0 1 -9 7 -20 13 -15 8
-20 8 -20 -3z"/>
<path d="M5290 3341 c0 -3 7 -14 15 -25 15 -20 30 -16 37 11 4 14 -2 18 -24
19 -15 1 -28 -2 -28 -5z"/>
<path d="M4865 3310 c-3 -11 -2 -28 4 -37 8 -15 10 -11 11 20 0 41 -5 47 -15
17z"/>
<path d="M4840 3257 c0 -8 7 -17 15 -21 8 -3 15 -2 15 3 0 5 -7 14 -15 21 -12
10 -15 10 -15 -3z"/>
<path d="M4843 3217 c3 -9 2 -19 -3 -22 -12 -7 -13 -55 -2 -55 4 0 12 15 18
33 8 27 7 36 -5 47 -13 12 -14 12 -8 -3z"/>
<path d="M4807 3073 l-17 -48 20 25 c16 20 28 70 17 70 -1 0 -10 -21 -20 -47z"/>
<path d="M6720 70 c0 -5 5 -10 10 -10 6 0 10 5 10 10 0 6 -4 10 -10 10 -5 0
-10 -4 -10 -10z"/>
<path d="M6640 35 c0 -34 1 -35 37 -35 l37 0 -34 35 c-19 19 -35 35 -37 35 -2
0 -3 -16 -3 -35z"/>
</g>
</svg>
